<svg width="462" height="98" viewBox="0 0 462 98" fill="none" xmlns="http://www.w3.org/2000/svg">
<path d="M0 49.0068C0 76.0226 21.8787 98 48.7599 98C75.641 98 97.5198 76.0226 97.5198 49.0068C97.5198 21.991 75.6636 0 48.7599 0C21.8562 0 0 21.9774 0 49.0068ZM1.68402 49.0068C1.68402 22.9074 22.8088 1.68397 48.7599 1.68397C74.711 1.68397 95.8493 22.9029 95.8493 49.0068C95.8493 75.1106 74.7426 96.307 48.7599 96.307C22.7772 96.307 1.68402 75.088 1.68402 49.0068ZM15.1923 35.5666C27.6622 27.3544 41.4459 22.5734 64.8145 26.6366C66.1058 25.8916 66.8101 25.1828 67.1442 23.6433C61.3065 21.535 54.9858 20.7901 46.8005 20.9345C39.4459 21.1422 26.213 23.8871 19.1428 28.0858L21.2963 25.377C26.24 22.4695 39.1208 18.605 48.7689 18.4018C55.5818 18.2754 59.1214 18.6591 67.2074 20.8488C66.5031 19.4492 64.8145 18.7585 62.3765 17.6524C54.5388 14.1174 39.9018 13.7923 27.915 19.0971C29.4835 18.0197 31.1351 17.0686 32.8542 16.2528C36.8047 14.447 43.2744 12.6772 51.3649 12.8172C57.8256 12.921 65.4963 15.1874 70.2007 19.8691C70.8733 20.6544 71.3622 21.5798 71.6319 22.5779C75.3566 24.465 77.5011 26.2393 78.7292 28.3386C79.2563 29.4454 79.4237 30.6894 79.2077 31.8962C80.4161 32.5698 81.4575 33.5063 82.2552 34.6366C82.811 35.4471 83.1753 36.3734 83.3207 37.3454C83.4833 38.5237 83.6097 39.8375 82.3907 41.3815C83.6684 42 84.6481 43.7698 84.8196 44.5418C85.4066 47.3634 83.6097 50.1038 81.2078 52.2167C78.4989 54.6321 72.4355 57.4944 67.5189 58.7539C57.7489 61.228 49.1256 62.2709 42.2586 63.5395C46.8594 64.7316 51.5966 65.316 56.3493 65.2776C70.9186 65.2776 83.8038 58.3521 83.8038 58.3521C83.8038 58.3521 83.5103 59.2551 83.2259 60.0587C73.9796 65.6749 59.2297 68.0542 52.9767 67.7652C47.2044 67.5471 41.4847 66.5819 35.9604 64.8939C34.3418 65.3027 32.7594 65.8433 31.2289 66.5102C39.2337 70.1716 45.2745 70.9932 52.1234 71.4763C59.0943 71.9955 70.6341 70.3025 80.4042 66.7539C79.9527 67.2054 79.7315 67.9187 79.2755 68.3341C74.2866 70.9526 63.722 73.6072 58.4216 73.8284C53.1212 74.0497 46.6831 73.8284 41.1118 72.781C36.2765 71.842 32.3621 70.3025 28.2491 68.5011C27.9097 68.7411 27.6229 69.0479 27.4063 69.4027C27.1897 69.7575 27.0479 70.1528 26.9895 70.5643C43.0351 78.9887 58.083 79.1738 75.185 73.8375L73.6184 75.395C54.7872 83.07 40.0554 80.0813 28.6645 74.5598C28.2657 74.4009 27.8793 74.2122 27.5087 73.9955C28.5561 75.842 37.2697 82.2302 46.9901 83.0248C53.7081 83.5801 61.889 82.4199 66.7514 80.474L63.9116 81.9684C58.5153 84.5191 52.5493 85.6252 46.5973 85.1783C34.9852 84.3928 28.4478 79.237 25.5132 76.5282C24.1587 75.2686 23.5131 73.7968 23.1068 72.0135C20.4792 70.623 18.8267 69.2009 17.4633 67.0474C16.6506 65.7878 16.8131 64.3837 17.0118 63.1964C17.0684 62.8336 17.1684 62.4789 17.3098 62.14C16.0501 61.237 14.777 60.2393 14.2262 59.2415C13.0794 57.1648 13.7747 55.3815 14.5828 53.9955C13.9045 53.3085 13.3568 52.5038 12.9665 51.6208C12.6788 50.6896 12.585 49.7093 12.6911 48.7404C12.9858 46.9632 13.8013 45.3134 15.0343 44C17.6077 41.0835 21.5717 38.781 28.4433 36.5056C35.1207 34.2844 37.8205 33.9548 42.8636 32.772C48.7328 31.4176 55.803 30.9661 61.7038 28.8894C45.2654 25.9865 28.1904 28.623 14.2713 38.2528L15.1923 35.5666ZM71.1759 25.386C70.9727 26.1986 70.0969 27.1332 69.4964 27.7788C71.3025 28.2827 73.0795 28.8856 74.8194 29.5846C74.6162 27.991 72.7606 26.4244 71.1759 25.4041M20.5378 58.3837C19.6199 57.8886 18.7292 57.3445 17.8696 56.7539C17.3865 57.7968 18.2895 58.9481 19.2511 59.5034C19.6575 59.0925 20.127 58.7585 20.5378 58.3837ZM75.9481 36.7946C77.0861 37.2922 78.1835 37.8778 79.2303 38.5463C79.9798 37.1242 79.5193 36.1896 77.9662 34.8758C77.3636 35.5853 76.6871 36.2286 75.9481 36.7946M72.4355 38.9616C70.0382 40.0767 66.5889 41.219 61.6587 42.4831C57.627 43.4989 47.7666 44.9165 37.1839 47.2325C33.8159 47.9594 24.7592 50.1129 20.3166 53.9232C21.5582 54.9255 22.3257 55.1783 23.7163 55.9503C25.5719 54.7585 28.064 53.6388 31.7933 52.6411C38.2946 50.9029 43.1344 50.1445 48.9766 49.2144C54.8188 48.2844 65.6814 46.0135 71.7312 43.8375C73.5791 43.2021 75.3192 42.2887 76.8916 41.1287C76.4718 40.6772 72.589 38.7765 72.4581 38.9526M26.7006 64.3612C27.7244 63.7577 28.7948 63.2368 29.9016 62.8036C28.2085 62.0993 26.4748 61.3318 24.7095 60.5192C23.9666 60.9703 23.2721 61.4967 22.6372 62.0903C23.9917 62.8713 25.3461 63.6388 26.7006 64.3476M21.1157 64.9029C21.0887 65.991 21.7478 66.9661 23.2016 68.158C23.3908 67.5788 23.6863 67.0399 24.0729 66.5688C23.0616 66.0587 22.0729 65.4898 21.1157 64.9029ZM29.3191 44.7404C41.2202 41.237 53.6991 40.1535 66.3405 36.781C61.4014 35.4266 58.697 34.8758 53.4688 35.4853C45.6681 36.4199 37.9567 37.9902 30.4117 40.1806C27.6171 41.0293 12.8717 45.2144 17.1247 51.088C17.1247 51.1693 19.6484 47.6027 29.3146 44.7675M73.939 32.5056C71.6931 31.518 69.3747 30.7045 67.0042 30.0722C65.6777 31.129 64.1919 31.9687 62.6023 32.5598C65.8123 33.1332 68.2232 34.0226 70.9186 34.8172C71.4062 35.0609 73.5958 33.0113 73.939 32.5192M79.8082 44.0181C79.4425 44.3386 79.0497 44.6366 78.6073 44.9707C75.8984 47.0609 71.659 48.7269 65.7536 50.307C53.5095 53.6163 44.6243 54.1038 34.5112 56.5824C32.4892 57.0809 30.5064 57.7267 28.5787 58.5147C30.484 59.4718 32.5156 60.3612 34.597 61.1603C38.5371 59.9689 42.5561 59.0562 46.6244 58.4289C48.8818 58.0361 55.8662 56.8126 60.9137 55.7201C70.0201 53.7697 83.3568 49.544 79.8082 43.9819" fill="white"/>
<path d="M144.234 70.3928H154.293L155.512 62.9842H162.429L163.644 70.3928H173.698L165.21 27.5034H152.731L144.234 70.3928ZM158.966 40.456L160.84 53.5485H157.115L158.966 40.456ZM183.166 44.6005C184.768 44.6005 187.726 43.5621 187.726 40.4063C187.726 36.6682 184.321 36.4154 183.364 36.4154C181.479 36.4235 179.618 36.8361 177.906 37.6253L177.834 28.3476C180.644 27.5779 183.548 27.2041 186.461 27.237C194.552 27.237 198.2 32.9391 198.2 38.4876C198.2 43.9052 195.04 47.2099 192.073 48.4695V48.8894C194.94 49.7923 198.846 52.605 198.846 59.1783C198.846 67.2596 193.216 71.7336 186.037 71.7336C182.163 71.7336 179.667 71.1648 176.66 69.5034L176.827 60.5959C178.888 61.5275 181.135 61.9724 183.396 61.8962C186.579 61.8962 187.856 59.5621 187.856 57.833C187.856 55.4221 186.335 53.8104 182.958 53.8104H178.895V44.6005H183.166ZM203.505 27.5034H230.53V70.3928H220.629V37.833H213.406V70.4018H203.505V27.5034ZM236.187 70.3928H246.12V56.2573H249.443C259.263 56.2573 262.274 47.3995 262.274 41.7833C262.274 36.167 258.802 27.5034 249.425 27.5395H236.187V70.3928ZM246.12 36.9526H248.477C250.734 36.9526 252.134 38.307 252.134 41.8555C252.134 46.5011 249.754 46.8217 248.477 46.8217H246.102L246.12 36.9526ZM280.618 70.921C292.356 70.921 296.329 59.9097 296.329 48.9029C296.329 37.8962 292.361 26.8849 280.618 26.8849C268.875 26.8849 264.92 37.8916 264.92 48.9029C264.92 59.9142 268.879 70.921 280.618 70.921ZM280.618 60.5372C277.141 60.5372 275.331 56.4424 275.331 48.8894C275.331 41.3363 277.137 37.237 280.618 37.237C284.099 37.237 285.909 41.3273 285.909 48.8894C285.909 56.4515 284.103 60.5372 280.618 60.5372ZM339.468 70.3792H351.301C353.866 70.3792 364.575 69.3138 364.598 56.3386C364.598 45.3679 356.295 43.4673 350.922 43.4673H349.175V37.8059H362.268V27.5034H339.45L339.468 70.3792ZM349.175 61.8014V52.0497H350.615C351.776 52.0497 354.904 52.1129 354.904 56.5192C354.904 61.0339 351.776 61.8014 350.615 61.8014H349.175ZM400.251 27.4898H409.944V42.9481H416.865V27.5034H426.55V70.3928H416.856V53.237H409.944V70.3928H400.233L400.251 27.4898ZM433.074 27.4898H442.771V42.93H444.875L450.438 27.4898H460.962L453.372 47.8555L462 70.3837H450.605L445.038 53.1377H442.735V70.3837H433.056L433.074 27.4898ZM125.06 27.5395H145.377V38.2438H135.155V70.4289H125.065L125.06 27.5395ZM301.056 27.5395H309.472L316.899 37.6388L324.38 27.5395H332.773V70.4289H322.876V44.2438L316.903 51.7562L310.966 44.2438V70.4289H301.061L301.056 27.5395ZM366.521 70.4966H376.575L377.79 63.079H384.706L385.93 70.4966H395.98L387.488 27.6072H375.004L366.521 70.4966ZM381.253 40.5553L383.126 53.6479H379.374L381.253 40.5553Z" fill="white"/>
</svg>
